<svg width="11" height="11" viewBox="0.16668701171875 0.1666259765625 10.6666259765625 10.666748046875" fill="none" xmlns="http://www.w3.org/2000/svg">
<path d="M8.2056 0.000198817H9.69776C10.0141 -0.00530607 10.3214 0.10367 10.5614 0.306441C10.8015 0.509212 10.9575 0.791661 10.9999 1.10017V4.95007C10.9575 5.25858 10.8015 5.54103 10.5614 5.7438C10.3214 5.94657 10.0141 6.05555 9.69776 6.05004H8.2056M4.29355 7.15001V9.34996C4.29355 9.78755 4.47019 10.2072 4.78461 10.5167C5.09904 10.8261 5.52548 10.9999 5.97014 10.9999L8.2056 6.05004V0.000198817H1.90162C1.63206 -0.00280011 1.37048 0.0901735 1.16509 0.261989C0.959688 0.433804 0.824307 0.672883 0.783889 0.935175L0.0126569 5.88505C-0.0116579 6.0427 -0.000853166 6.20366 0.0443223 6.3568C0.0894978 6.50993 0.167964 6.65157 0.274284 6.77189C0.380604 6.89222 0.512237 6.98836 0.66006 7.05365C0.807884 7.11894 0.968365 7.15182 1.13038 7.15001H4.29355Z" stroke="white" stroke-width="2" stroke-linecap="round" stroke-linejoin="round"/>
</svg>
