<svg width="11" height="11" viewBox="0.166656494140625 0.1666259765625 10.66668701171875 10.666748046875" fill="none" xmlns="http://www.w3.org/2000/svg">
<path d="M2.79432 10.9998H1.11773C0.821287 10.9998 0.536989 10.884 0.327375 10.6777C0.11776 10.4714 0 10.1916 0 9.89986V6.04991C0 5.75818 0.11776 5.4784 0.327375 5.27211C0.536989 5.06582 0.821287 4.94993 1.11773 4.94993H2.79432M6.70636 3.84995V1.64998C6.70636 1.21238 6.52972 0.792698 6.2153 0.483267C5.90088 0.173836 5.47443 0 5.02977 0L2.79432 4.94993V10.9998H9.0983C9.36786 11.0028 9.62943 10.9099 9.83483 10.7381C10.0402 10.5662 10.1756 10.3272 10.216 10.0649L10.9873 5.11493C11.0116 4.95728 11.0008 4.79631 10.9556 4.64317C10.9104 4.49004 10.832 4.3484 10.7256 4.22807C10.6193 4.10775 10.4877 4.01161 10.3399 3.94631C10.192 3.88102 10.0315 3.84814 9.86953 3.84995H6.70636Z" stroke="white" stroke-width="2" stroke-linecap="round" stroke-linejoin="round"/>
</svg>
