<svg width="136" height="30" viewBox="0 0 136 30" fill="none" xmlns="http://www.w3.org/2000/svg">
<path d="M6.29333 2.63667V3.09L7.54667 4.45L1.22667 27.5167L0 28.8767V29.3033H7.70667V28.8767L6.48 27.5167L6.72 26.6633L13.8133 21.7567L15.3067 27.5167L14.0533 28.8767V29.3033H21.76V28.8767L20.5333 27.5167L14.5867 4.45L15.8133 3.09V2.63667H6.29333ZM11.0133 10.93L12.4533 16.53L8.8 19.0633L11.0133 10.93Z" fill="#FA4776"/>
<path d="M24.4323 6.21V6.63667L25.659 7.99667V25.9433L24.4323 27.2767V27.73H31.9523V27.2767L30.7256 25.9433V21.73L39.3656 15.7567L39.3923 8.69L35.8456 6.21H24.4323ZM30.7256 11.2767H33.4723L34.3256 11.8633V13.09L30.7256 15.57V11.2767Z" fill="#FA4776"/>
<path d="M43.2917 6.21V6.63667L44.5183 7.99667V25.9167L43.2917 27.2767V27.7033H49.585V16.6633L55.6917 27.7033H62.0117V27.2767L60.7583 25.9167V7.99667L62.0117 6.63667V6.21H55.6917V17.25L49.6117 6.21H43.2917Z" fill="#FA4776"/>
<path d="M69.5571 6.21V6.63667L70.8104 7.99667L65.9038 25.9167L64.6771 27.2767V27.7033H72.3838V27.2767L71.1571 25.9167L71.3704 25.1167L77.3971 20.93L78.7038 25.9167L77.4504 27.2767V27.7033H85.1571V27.2767L83.9304 25.9167L79.3171 7.99667L80.5438 6.63667V6.21H69.5571ZM75.0238 11.73L76.0638 15.7033L73.4504 17.5167L75.0238 11.73Z" fill="#FA4776"/>
<path d="M87.9896 0V7.08H88.4696L89.9996 5.7H95.3696V27.99L93.9896 29.49V30H102.48V29.49L101.07 27.99V5.7H106.47L108 7.08H108.48V0H87.9896Z" fill="#FA4776"/>
<path d="M111.492 0V0.479999L112.872 2.01L120.522 30H127.392L134.592 2.01L135.972 0.479999V0H127.302V0.479999L128.712 2.01L123.882 20.67L118.782 2.01L120.162 0.479999V0H111.492Z" fill="#FA4776"/>
</svg>
