<svg width="28" height="26" viewBox="0 0 28 26" fill="none" xmlns="http://www.w3.org/2000/svg">
<path d="M11.9012 3.50097C12.6428 2.04413 14.7241 2.04413 15.4658 3.50097L17.1784 6.8649C17.4777 7.45294 18.0479 7.85548 18.7022 7.94076L22.4221 8.42558C24.1104 8.64562 24.7692 10.7401 23.5108 11.887L20.9378 14.2321C20.4248 14.6997 20.1909 15.3999 20.3199 16.082L20.9693 19.5151C21.2782 21.1475 19.5773 22.4229 18.0967 21.6691L14.591 19.8841C14.0208 19.5938 13.3462 19.5938 12.776 19.8841L9.27025 21.6691C7.78972 22.4229 6.08882 21.1475 6.39763 19.5151L7.04707 16.082C7.1761 15.3999 6.94221 14.6997 6.42916 14.2321L3.85613 11.887C2.59779 10.7401 3.25659 8.64562 4.94489 8.42558L8.66477 7.94076C9.31909 7.85548 9.88924 7.45294 10.1886 6.8649L11.9012 3.50097Z" fill="#FFC700"/>
</svg>
