<svg width="28" height="26" viewBox="0 0 28 26" fill="none" xmlns="http://www.w3.org/2000/svg">
<path d="M12.5695 3.84124C13.0331 2.93071 14.3339 2.93071 14.7974 3.84124L16.51 7.20516C16.9216 8.01372 17.7056 8.56721 18.6053 8.68447L22.3252 9.16929C23.3803 9.30682 23.7921 10.6159 23.0056 11.3327L20.4326 13.6778C19.7271 14.3208 19.4056 15.2835 19.583 16.2214L20.2324 19.6545C20.4254 20.6747 19.3624 21.4719 18.437 21.0007L14.9313 19.2157C14.1473 18.8165 13.2197 18.8165 12.4357 19.2157L8.92995 21.0007C8.00462 21.4719 6.94155 20.6747 7.13456 19.6545L7.784 16.2214C7.96142 15.2835 7.63982 14.3208 6.93437 13.6778L4.36134 11.3327C3.57488 10.6159 3.98663 9.30682 5.04182 9.16929L8.7617 8.68447C9.66139 8.56721 10.4453 8.01372 10.857 7.20516L12.5695 3.84124Z" stroke="#FFC700" stroke-width="1.5"/>
</svg>
