<svg width="18" height="20" viewBox="0 0 18 20" fill="none" xmlns="http://www.w3.org/2000/svg">
<path fill-rule="evenodd" clip-rule="evenodd" d="M15.2308 10.9385C15.3692 11.7692 15.5077 12.4615 15.7846 13.2923L16.6154 15.6462L15.9231 16.6154H11.0769C11.0769 17.3077 10.8 18 10.2462 18.5538C9.69231 19.1077 9 19.3846 8.30769 19.3846C7.61539 19.3846 6.78462 19.1077 6.36923 18.5538C5.81538 18 5.53846 17.3077 5.53846 16.6154H0.692308L0 15.6462L0.830769 13.2923C1.10769 12.1846 1.38462 11.0769 1.38462 9.96923V6.92308C1.38462 5.95385 1.52308 4.98462 1.93846 4.15385C2.35385 3.18462 2.90769 2.49231 3.6 1.8C4.29231 1.10769 5.12308 0.692308 6.09231 0.415385C6.78462 0.138461 7.61539 0 8.30769 0C8.03077 0.415385 7.75385 0.969231 7.47692 1.52308C7.2 1.52308 6.92308 1.52308 6.50769 1.8C5.81538 1.93846 5.12308 2.35385 4.56923 2.90769C4.01539 3.32308 3.46154 4.01539 3.18462 4.70769C2.90769 5.4 2.76923 6.09231 2.76923 6.92308V9.96923C2.76923 11.2154 2.49231 12.4615 2.21538 13.7077L1.66154 15.2308H14.9538L14.4 13.7077C14.1577 12.9794 14.0206 12.1431 13.8974 11.3898L13.8462 11.0769C14.4 11.0769 14.8154 11.0769 15.2308 10.9385ZM8.30769 18C8.58462 18 9 17.8615 9.27692 17.5846C9.55385 17.3077 9.69231 17.0308 9.69231 16.6154H6.92308C6.92308 17.0308 7.06154 17.3077 7.33846 17.5846C7.61539 17.8615 8.03077 18 8.30769 18ZM18 4.15385C18 5.25552 17.5624 6.31206 16.7834 7.09106C16.0044 7.87006 14.9478 8.30769 13.8462 8.30769C12.7445 8.30769 11.6879 7.87006 10.9089 7.09106C10.1299 6.31206 9.69231 5.25552 9.69231 4.15385C9.69231 3.05218 10.1299 1.99563 10.9089 1.21663C11.6879 0.437636 12.7445 0 13.8462 0C14.9478 0 16.0044 0.437636 16.7834 1.21663C17.5624 1.99563 18 3.05218 18 4.15385Z" fill="white"/>
</svg>
