<svg width="19" height="19" viewBox="0.497100830078125 0.4970989227294922 18.00579833984375 18.005802154541016" fill="none" xmlns="http://www.w3.org/2000/svg">
<path d="M18.6879 17.1895L15.1001 13.6123C16.2577 12.1376 16.8858 10.3165 16.8835 8.44173C16.8835 6.77211 16.3884 5.13999 15.4608 3.75176C14.5332 2.36352 13.2148 1.28153 11.6722 0.642592C10.1297 0.00365764 8.43236 -0.163517 6.79483 0.162209C5.1573 0.487935 3.65312 1.29193 2.47253 2.47253C1.29193 3.65312 0.487935 5.1573 0.162209 6.79483C-0.163517 8.43236 0.00365764 10.1297 0.642592 11.6722C1.28153 13.2148 2.36352 14.5332 3.75176 15.4608C5.13999 16.3884 6.77211 16.8835 8.44173 16.8835C10.3165 16.8858 12.1376 16.2577 13.6123 15.1001L17.1895 18.6879C17.2876 18.7868 17.4043 18.8653 17.5329 18.9188C17.6614 18.9724 17.7994 19 17.9387 19C18.078 19 18.2159 18.9724 18.3445 18.9188C18.4731 18.8653 18.5898 18.7868 18.6879 18.6879C18.7868 18.5898 18.8653 18.4731 18.9188 18.3445C18.9724 18.2159 19 18.078 19 17.9387C19 17.7994 18.9724 17.6614 18.9188 17.5329C18.8653 17.4043 18.7868 17.2876 18.6879 17.1895ZM2.11043 8.44173C2.11043 7.18952 2.48176 5.96543 3.17745 4.92425C3.87314 3.88307 4.86195 3.07158 6.01885 2.59238C7.17574 2.11317 8.44875 1.98779 9.6769 2.23209C10.9051 2.47638 12.0332 3.07938 12.9186 3.96483C13.8041 4.85027 14.4071 5.9784 14.6514 7.20655C14.8957 8.4347 14.7703 9.70772 14.2911 10.8646C13.8119 12.0215 13.0004 13.0103 11.9592 13.706C10.918 14.4017 9.69394 14.773 8.44173 14.773C6.76256 14.773 5.15217 14.106 3.96483 12.9186C2.77748 11.7313 2.11043 10.1209 2.11043 8.44173Z" fill="#F8F8F8"/>
</svg>
