<svg width="20" height="33" viewBox="0.39704132080078125 0.216583251953125 19.205917358398438 32.56683349609375" fill="none" xmlns="http://www.w3.org/2000/svg">
<path d="M0.864307 0.868203C0.590326 1.14162 0.372959 1.4664 0.224649 1.82393C0.0763401 2.18146 0 2.56473 0 2.9518C0 3.33887 0.0763401 3.72215 0.224649 4.07968C0.372959 4.43721 0.590326 4.76198 0.864307 5.0354L12.3315 16.5026L0.864307 27.9698C0.311702 28.5224 0.00125143 29.2719 0.00125143 30.0534C0.00125143 30.8349 0.311702 31.5844 0.864307 32.137C1.41691 32.6896 2.16641 33 2.94791 33C3.72941 33 4.4789 32.6896 5.03151 32.137L18.5971 18.5714C18.8711 18.298 19.0884 17.9732 19.2367 17.6157C19.385 17.2582 19.4614 16.8749 19.4614 16.4878C19.4614 16.1007 19.385 15.7175 19.2367 15.3599C19.0884 15.0024 18.8711 14.6776 18.5971 14.4042L5.03151 0.838648C3.90843 -0.284427 2.01694 -0.284427 0.864307 0.868203Z" fill="white"/>
</svg>
