<svg width="11" height="11" viewBox="0.166656494140625 0.166656494140625 10.66668701171875 10.66668701171875" fill="none" xmlns="http://www.w3.org/2000/svg">
<path d="M8.20564 0.000198818H9.69782C10.0141 -0.0053061 10.3215 0.103671 10.5615 0.306443C10.8015 0.509215 10.9576 0.791665 11 1.10018V4.9501C10.9576 5.25861 10.8015 5.54106 10.5615 5.74383C10.3215 5.9466 10.0141 6.05558 9.69782 6.05008H8.20564M4.29358 7.15006V9.35001C4.29358 9.78761 4.47022 10.2073 4.78464 10.5167C5.09906 10.8261 5.52551 11 5.97018 11L8.20564 6.05008V0.000198818H1.90163C1.63207 -0.00280013 1.37049 0.090174 1.16509 0.26199C0.959694 0.433806 0.824312 0.672887 0.783893 0.93518L0.012657 5.88508C-0.011658 6.04273 -0.000853171 6.2037 0.0443226 6.35683C0.0894983 6.50997 0.167965 6.6516 0.274286 6.77193C0.380607 6.89226 0.512239 6.9884 0.660064 7.05369C0.807889 7.11898 0.968371 7.15186 1.13039 7.15006H4.29358Z" stroke="white" stroke-width="2" stroke-linecap="round" stroke-linejoin="round"/>
</svg>
