<svg width="11" height="11" viewBox="0.16666698455810547 0.166656494140625 10.666666030883789 10.66668701171875" fill="none" xmlns="http://www.w3.org/2000/svg">
<path d="M2.79433 10.9999H1.11773C0.821292 10.9999 0.536992 10.884 0.327377 10.6777C0.117761 10.4714 0 10.1917 0 9.89992V6.04995C0 5.75821 0.117761 5.47843 0.327377 5.27214C0.536992 5.06585 0.821292 4.94996 1.11773 4.94996H2.79433M6.7064 3.84997V1.64999C6.7064 1.21238 6.52976 0.792702 6.21534 0.48327C5.90091 0.173837 5.47446 0 5.0298 0L2.79433 4.94996V10.9999H9.09835C9.36791 11.0029 9.62949 10.9099 9.83489 10.7381C10.0403 10.5663 10.1757 10.3272 10.2161 10.0649L10.9873 5.11496C11.0116 4.9573 11.0008 4.79633 10.9557 4.6432C10.9105 4.49006 10.832 4.34843 10.7257 4.2281C10.6194 4.10777 10.4877 4.01163 10.3399 3.94634C10.1921 3.88104 10.0316 3.84816 9.86959 3.84997H6.7064Z" stroke="white" stroke-width="2" stroke-linecap="round" stroke-linejoin="round"/>
</svg>
